<?xml version="1.0" encoding="utf-8"?>
<svg version="1.2" baseProfile="tiny" xmlns="http://www.w3.org/2000/svg" xmlns:xlink="http://www.w3.org/1999/xlink"
	 x="0px" y="0px" width="32px" height="32px" viewBox="0 0 32 32" xml:space="preserve">
<path d="M14.33,0L0,0.021v14.314L17.66,32L32,17.664L14.33,0z M5.035,9.115c-1.167-1.168-1.167-3.061,0-4.227
	c1.168-1.168,3.063-1.168,4.229,0c1.168,1.166,1.168,3.059,0,4.227S6.203,10.283,5.035,9.115z M14.935,21.588l-5.92-5.921
	l1.373-1.373l5.922,5.921L14.935,21.588z M20.785,22.205l-9.155-9.152l1.374-1.373l9.156,9.152L20.785,22.205z M23.445,19.548
	l-9.158-9.153l1.374-1.373l9.159,9.153L23.445,19.548z"/>
</svg>
